<?xml version="1.0" encoding="utf-8"?>
<!-- Generator: Adobe Illustrator 26.3.1, SVG Export Plug-In . SVG Version: 6.00 Build 0)  -->
<svg version="1.1" id="apps" xmlns="http://www.w3.org/2000/svg" xmlns:xlink="http://www.w3.org/1999/xlink" x="0px" y="0px"
	 viewBox="0 0 24 24" style="enable-background:new 0 0 24 24;" xml:space="preserve">
<style type="text/css">
	.st0{fill:#180F22;enable-background:new    ;}
</style>
<path id="Path_22" class="st0" d="M7,0H4C1.8,0,0,1.8,0,4v3c0,2.2,1.8,4,4,4h3c2.2,0,4-1.8,4-4V4C11,1.8,9.2,0,7,0z M9,7
	c0,1.1-0.9,2-2,2H4C2.9,9,2,8.1,2,7V4c0-1.1,0.9-2,2-2h3c1.1,0,2,0.9,2,2V7z"/>
<path id="Path_23" class="st0" d="M20,0h-3c-2.2,0-4,1.8-4,4v3c0,2.2,1.8,4,4,4h3c2.2,0,4-1.8,4-4V4C24,1.8,22.2,0,20,0z M22,7
	c0,1.1-0.9,2-2,2h-3c-1.1,0-2-0.9-2-2V4c0-1.1,0.9-2,2-2h3c1.1,0,2,0.9,2,2V7z"/>
<path id="Path_24" class="st0" d="M7,13H4c-2.2,0-4,1.8-4,4v3c0,2.2,1.8,4,4,4h3c2.2,0,4-1.8,4-4v-3C11,14.8,9.2,13,7,13z M9,20
	c0,1.1-0.9,2-2,2H4c-1.1,0-2-0.9-2-2v-3c0-1.1,0.9-2,2-2h3c1.1,0,2,0.9,2,2V20z"/>
<path id="Path_25" class="st0" d="M20,13h-3c-2.2,0-4,1.8-4,4v3c0,2.2,1.8,4,4,4h3c2.2,0,4-1.8,4-4v-3C24,14.8,22.2,13,20,13z
	 M22,20c0,1.1-0.9,2-2,2h-3c-1.1,0-2-0.9-2-2v-3c0-1.1,0.9-2,2-2h3c1.1,0,2,0.9,2,2V20z"/>
</svg>
