<?xml version="1.0" encoding="utf-8"?>
<!-- Generator: Adobe Illustrator 26.3.1, SVG Export Plug-In . SVG Version: 6.00 Build 0)  -->
<svg version="1.1" id="shopping-cart" xmlns="http://www.w3.org/2000/svg" xmlns:xlink="http://www.w3.org/1999/xlink" x="0px"
	 y="0px" viewBox="0 0 23.4 24" style="enable-background:new 0 0 23.4 24;" xml:space="preserve">
<style type="text/css">
	.st0{fill:#180F22;enable-background:new    ;}
</style>
<path id="Path_21" class="st0" d="M22.7,4.1C22.1,3.4,21.3,3,20.4,3H4.2V2.6C4,1.1,2.7,0,1.2,0H1C0.4,0,0,0.4,0,1s0.4,1,1,1h0.2
	c0.5,0,0.9,0.4,1,0.9l1.4,11.7C3.9,17.1,6,19,8.6,19H19c0.6,0,1-0.4,1-1s-0.4-1-1-1H8.6c-1.3,0-2.4-0.8-2.8-2h11.9
	c2.4,0,4.5-1.7,4.9-4.1l0.8-4.4C23.5,5.7,23.3,4.8,22.7,4.1z M21.4,6.2l-0.8,4.4c-0.3,1.4-1.5,2.5-3,2.5H5.4L4.5,5h15.9
	c0.6,0,1,0.4,1,1C21.4,6.1,21.4,6.1,21.4,6.2z"/>
<circle id="Ellipse_5" class="st0" cx="7" cy="22" r="2"/>
<circle id="Ellipse_6" class="st0" cx="17" cy="22" r="2"/>
</svg>
