<?xml version="1.0" encoding="utf-8"?>
<!-- Generator: Adobe Illustrator 26.3.1, SVG Export Plug-In . SVG Version: 6.00 Build 0)  -->
<svg version="1.1" id="圖層_1" xmlns="http://www.w3.org/2000/svg" xmlns:xlink="http://www.w3.org/1999/xlink" x="0px" y="0px"
	 viewBox="0 0 24 24" style="enable-background:new 0 0 24 24;" xml:space="preserve">
<style type="text/css">
	.st0{fill:#180F22;enable-background:new    ;}
</style>
<path id="home" class="st0" d="M23.1,9l-7.6-7.6c-2-1.9-5.1-1.9-7.1,0L0.9,9C0.3,9.6,0,10.4,0,11.2V21c0,1.7,1.3,3,3,3h18
	c1.7,0,3-1.3,3-3v-9.8C24,10.4,23.7,9.6,23.1,9z M15,22H9v-3.9c0-1.7,1.3-3,3-3s3,1.3,3,3V22z M22,21c0,0.6-0.4,1-1,1h-4v-3.9
	c0-2.8-2.2-5-5-5s-5,2.2-5,5V22H3c-0.6,0-1-0.4-1-1v-9.8c0-0.3,0.1-0.5,0.3-0.7l7.6-7.6c1.2-1.2,3.1-1.2,4.2,0l7.6,7.6
	c0.2,0.2,0.3,0.4,0.3,0.7C22,11.2,22,21,22,21z"/>
</svg>
