<svg id="comment-alt" xmlns="http://www.w3.org/2000/svg" width="24" height="24" viewBox="0 0 24 24">
  <path id="Path_26" data-name="Path 26" d="M20,0H4A4,4,0,0,0,0,4V16a4,4,0,0,0,4,4H6.9l4.451,3.763a1,1,0,0,0,1.292,0L17.1,20H20a4,4,0,0,0,4-4V4A4,4,0,0,0,20,0Zm2,16a2,2,0,0,1-2,2H17.1a2,2,0,0,0-1.291.473L12,21.69,8.193,18.473h0A2,2,0,0,0,6.9,18H4a2,2,0,0,1-2-2V4A2,2,0,0,1,4,2H20a2,2,0,0,1,2,2Z" fill="#f8d67c"/>
  <path id="Path_27" data-name="Path 27" d="M7,7h5a1,1,0,0,0,0-2H7A1,1,0,0,0,7,7Z" fill="#f8d67c"/>
  <path id="Path_28" data-name="Path 28" d="M17,9H7a1,1,0,0,0,0,2H17a1,1,0,0,0,0-2Z" fill="#f8d67c"/>
  <path id="Path_29" data-name="Path 29" d="M17,13H7a1,1,0,0,0,0,2H17a1,1,0,0,0,0-2Z" fill="#f8d67c"/>
</svg>
