<?xml version="1.0" encoding="utf-8"?>
<!-- Generator: Adobe Illustrator 26.3.1, SVG Export Plug-In . SVG Version: 6.00 Build 0)  -->
<svg version="1.1" id="圖層_1" xmlns="http://www.w3.org/2000/svg" xmlns:xlink="http://www.w3.org/1999/xlink" x="0px" y="0px"
	 viewBox="0 0 18 24" style="enable-background:new 0 0 18 24;" xml:space="preserve">
<style type="text/css">
	.st0{fill:#180F22;}
</style>
<g id="user" transform="translate(-3)">
	<path id="Path_30" class="st0" d="M12,12c3.3,0,6-2.7,6-6s-2.7-6-6-6S6,2.7,6,6S8.7,12,12,12z M12,2c2.2,0,4,1.8,4,4s-1.8,4-4,4
		S8,8.2,8,6S9.8,2,12,2z"/>
	<path id="Path_31" class="st0" d="M12,14c-5,0-9,4-9,9c0,0.6,0.4,1,1,1s1-0.4,1-1c0-3.9,3.1-7,7-7s7,3.1,7,7c0,0.6,0.4,1,1,1
		s1-0.4,1-1C21,18,17,14,12,14z"/>
</g>
</svg>
