<svg xmlns="http://www.w3.org/2000/svg" width="111.936" height="27.852" viewBox="0 0 111.936 27.852">
  <path id="Path_38" data-name="Path 38" d="M-37.994-6.644a6.156,6.156,0,0,1-1.32.638,5.435,5.435,0,0,1-1.848.286,6.284,6.284,0,0,1-2.266-.352,1.982,1.982,0,0,1-1.21-1.188q-1.5-4.18-2.53-7t-1.606-4.84h-.22q-.132,2.772-.22,5.1T-49.368-9.5q-.066,2.156-.154,4.422t-.22,4.95q-.528.132-1.32.286a8.281,8.281,0,0,1-1.584.154,5.1,5.1,0,0,1-2.6-.55A2.087,2.087,0,0,1-56.166-2.2q0-.968.088-2.882t.242-4.4q.154-2.486.33-5.258t.374-5.478q.2-2.706.33-4.994a3.784,3.784,0,0,1,1.408-1.078,6.356,6.356,0,0,1,2.9-.55,6.711,6.711,0,0,1,3.168.638,3.685,3.685,0,0,1,1.716,2.046q.66,1.628,1.408,3.718t1.5,4.224l1.364,3.894h.22q1.276-3.916,2.552-7.612t2.244-6.2a5.721,5.721,0,0,1,1.518-.506,9.756,9.756,0,0,1,2-.2,7.221,7.221,0,0,1,3.058.55,2.285,2.285,0,0,1,1.386,1.65q.176.836.374,2.64t.418,4.158q.22,2.354.44,4.928t.418,4.994q.2,2.42.33,4.378t.176,3.1a4.947,4.947,0,0,1-1.386.572,7.924,7.924,0,0,1-1.826.176A5.252,5.252,0,0,1-31.79-.2a2.134,2.134,0,0,1-1.1-1.958q-.176-3.476-.308-6.6t-.22-5.72q-.088-2.6-.176-4.4h-.22q-.572,1.892-1.606,4.774T-37.994-6.644Zm23.76-11.968v18.3a8.385,8.385,0,0,1-1.21.264,10.863,10.863,0,0,1-1.738.132,3.508,3.508,0,0,1-2.6-.968,3.508,3.508,0,0,1-.968-2.6V-18.612Zm-6.512,10.56V-23.144a3.508,3.508,0,0,1,.968-2.6,3.508,3.508,0,0,1,2.6-.968,10.863,10.863,0,0,1,1.738.132,8.385,8.385,0,0,1,1.21.264v18.26Zm3.564-8.184H-3.894a4.865,4.865,0,0,1,.462,1.1,5.038,5.038,0,0,1,.2,1.452,2.869,2.869,0,0,1-.616,2.046A2.216,2.216,0,0,1-5.522-11h-11.66Zm0,11.044h14.74A3.95,3.95,0,0,1-1.98-4.114a5.436,5.436,0,0,1,.2,1.518A2.881,2.881,0,0,1-2.4-.572,2.176,2.176,0,0,1-4.07.088H-17.182Zm0-21.516h14.52a5.587,5.587,0,0,1,.484,1.1,4.569,4.569,0,0,1,.22,1.452,2.954,2.954,0,0,1-.616,2.068,2.232,2.232,0,0,1-1.716.66H-17.182ZM9.262-19.184q.176,1.848.264,3.7t.088,3.564V-.044Q9.262.044,8.4.176A11.413,11.413,0,0,1,6.666.308a4.232,4.232,0,0,1-2.684-.66A2.966,2.966,0,0,1,3.19-2.728V-19.14ZM20.526-7.612q-.308-3.256-.33-6.16t-.022-5.544v-7.436q.44-.088,1.276-.22a10.987,10.987,0,0,1,1.716-.132,4.132,4.132,0,0,1,2.662.66,3.017,3.017,0,0,1,.77,2.376V-7.7Zm6.072-6.38V-.836A3.648,3.648,0,0,1,25.036,0a8.6,8.6,0,0,1-2.442.308,8.084,8.084,0,0,1-2.772-.462A3.988,3.988,0,0,1,17.71-2.288L12.342-12.452q-.484-1.012-.968-1.98t-.924-1.936q-.44-.968-.88-1.98L3.19-16.94v-8.58a3.548,3.548,0,0,1,1.672-1.144,6.964,6.964,0,0,1,2.376-.4,7.933,7.933,0,0,1,2.794.484,3.916,3.916,0,0,1,2.09,2.112l5.412,10.208q.528.924.99,1.914t.9,1.98q.44.99.836,2L26.6-9.812ZM44.242.748A13.6,13.6,0,0,1,38.06-.55a9.27,9.27,0,0,1-3.938-3.63,10.61,10.61,0,0,1-1.364-5.456v-2.9H39.4v2.728a5.114,5.114,0,0,0,1.364,3.784,4.708,4.708,0,0,0,3.476,1.364,4.708,4.708,0,0,0,3.476-1.364,5.114,5.114,0,0,0,1.364-3.784V-12.54H55.77v2.9A10.478,10.478,0,0,1,54.384-4.18a9.413,9.413,0,0,1-3.96,3.63A13.6,13.6,0,0,1,44.242.748ZM32.758-11.22V-26.752q.44-.088,1.32-.22a11.849,11.849,0,0,1,1.76-.132,4.436,4.436,0,0,1,2.728.66A3,3,0,0,1,39.4-23.98v12.76Zm16.324.088v-15.62q.44-.088,1.342-.22a12.007,12.007,0,0,1,1.738-.132,4.541,4.541,0,0,1,2.75.66,2.957,2.957,0,0,1,.858,2.464v12.848Z" transform="translate(56.166 27.104)" fill="#180f22"/>
</svg>
