<?xml version="1.0" encoding="utf-8"?>
<!-- Generator: Adobe Illustrator 26.3.1, SVG Export Plug-In . SVG Version: 6.00 Build 0)  -->
<svg version="1.1" id="comment-alt" xmlns="http://www.w3.org/2000/svg" xmlns:xlink="http://www.w3.org/1999/xlink" x="0px"
	 y="0px" viewBox="0 0 24 24" style="enable-background:new 0 0 24 24;" xml:space="preserve">
<style type="text/css">
	.st0{fill:#180F22;enable-background:new    ;}
</style>
<path id="Path_26" class="st0" d="M20,0H4C1.8,0,0,1.8,0,4v12c0,2.2,1.8,4,4,4h2.9l4.5,3.8c0.4,0.3,0.9,0.3,1.3,0l4.5-3.8H20
	c2.2,0,4-1.8,4-4V4C24,1.8,22.2,0,20,0z M22,16c0,1.1-0.9,2-2,2h-2.9c-0.5,0-0.9,0.2-1.3,0.5L12,21.7l-3.8-3.2l0,0
	C7.8,18.2,7.4,18,6.9,18H4c-1.1,0-2-0.9-2-2V4c0-1.1,0.9-2,2-2h16c1.1,0,2,0.9,2,2V16z"/>
<path id="Path_27" class="st0" d="M7,7h5c0.6,0,1-0.4,1-1s-0.4-1-1-1H7C6.4,5,6,5.4,6,6S6.4,7,7,7z"/>
<path id="Path_28" class="st0" d="M17,9H7c-0.6,0-1,0.4-1,1s0.4,1,1,1h10c0.6,0,1-0.4,1-1S17.6,9,17,9z"/>
<path id="Path_29" class="st0" d="M17,13H7c-0.6,0-1,0.4-1,1s0.4,1,1,1h10c0.6,0,1-0.4,1-1S17.6,13,17,13z"/>
</svg>
